<?xml version="1.0" standalone="no"?>
<!DOCTYPE svg PUBLIC "-//W3C//DTD SVG 20010904//EN"
 "http://www.w3.org/TR/2001/REC-SVG-20010904/DTD/svg10.dtd">
<svg version="1.0" xmlns="http://www.w3.org/2000/svg"
 width="1200.000000pt" height="800.000000pt" viewBox="0 0 1200.000000 800.000000"
 preserveAspectRatio="xMidYMid meet">

<g transform="translate(0.000000,800.000000) scale(0.100000,-0.100000)"
fill="#000000" stroke="none">
<path d="M2255 5503 c-4 -16 -11 -46 -16 -68 -6 -22 -15 -60 -20 -84 -5 -25
-13 -59 -18 -75 -6 -17 -17 -60 -26 -96 -9 -36 -22 -87 -30 -115 -7 -27 -16
-65 -20 -82 l-7 -33 356 0 356 0 -6 -32 c-3 -18 -10 -44 -14 -58 -5 -14 -26
-88 -46 -165 -36 -138 -72 -271 -99 -370 -28 -104 -68 -253 -85 -320 -10 -38
-29 -110 -43 -160 -42 -153 -89 -329 -97 -360 -14 -55 -61 -229 -96 -355 -47
-166 -74 -271 -74 -282 0 -4 179 -8 398 -8 l398 0 107 398 c59 218 146 539
193 712 46 173 100 371 118 440 19 69 60 223 92 343 l58 217 408 0 408 0 5 23
c3 12 34 140 70 285 36 144 65 265 65 267 0 3 -43 5 -95 5 -68 0 -97 -4 -99
-12 -2 -7 -18 -69 -36 -138 -17 -69 -39 -147 -48 -175 l-17 -50 -414 -5 -413
-5 -13 -35 c-7 -19 -20 -62 -29 -95 -9 -33 -32 -118 -52 -190 -19 -71 -41
-152 -49 -180 -7 -27 -24 -93 -39 -145 -14 -52 -37 -135 -50 -185 -13 -49 -33
-124 -45 -165 -11 -42 -31 -118 -45 -170 -24 -88 -57 -212 -91 -335 -7 -27
-25 -95 -40 -150 -15 -55 -36 -131 -47 -170 -11 -38 -23 -86 -28 -105 -4 -19
-12 -48 -18 -65 -5 -16 -15 -49 -21 -72 l-12 -43 -170 0 c-158 0 -170 1 -165
18 3 9 25 94 50 187 26 94 100 370 166 615 67 245 141 519 165 610 25 91 76
280 114 420 l69 255 -374 3 c-236 1 -374 6 -374 12 0 10 75 318 86 353 5 15
-4 17 -95 17 l-101 0 -5 -27z"/>
<path d="M4650 4979 c-35 -133 -49 -173 -64 -181 -14 -8 -137 -9 -401 -5 -209
4 -389 4 -401 1 -18 -5 -29 -35 -73 -202 -29 -108 -59 -219 -67 -247 -8 -27
-64 -232 -124 -455 -61 -223 -117 -430 -125 -460 -8 -30 -51 -188 -95 -350
-44 -162 -87 -319 -96 -347 l-15 -53 -284 0 -284 0 -11 -42 c-6 -24 -15 -54
-20 -68 -5 -14 -12 -40 -15 -58 l-7 -32 403 2 403 3 17 65 c9 36 83 310 164
610 81 300 198 736 261 970 63 234 117 433 120 443 5 16 33 17 413 17 l407 0
64 263 c35 144 65 270 68 280 4 15 -5 17 -95 17 l-98 0 -45 -171z"/>
<path d="M5090 3935 l0 -885 595 0 595 0 0 135 0 135 -272 3 c-150 1 -340 2
-423 2 -82 1 -158 2 -167 3 -17 2 -18 21 -18 242 l0 240 390 0 390 0 0 135 0
135 -390 0 -390 0 0 230 0 230 435 0 436 0 -3 138 -3 137 -587 3 -588 2 0
-885z"/>
<path d="M6637 4633 c-4 -3 -7 -80 -7 -170 l0 -163 -95 0 -95 0 0 -120 0 -120
95 0 94 0 3 -347 c3 -305 5 -354 21 -398 39 -107 121 -188 240 -234 54 -21 83
-25 225 -29 l162 -4 0 120 0 120 -117 4 c-137 5 -180 20 -215 77 -23 35 -23
43 -26 364 l-3 327 175 0 176 0 0 120 0 120 -175 0 -175 0 0 170 0 170 -138 0
c-76 0 -142 -3 -145 -7z"/>
<path d="M7885 4310 c-232 -42 -385 -185 -430 -400 -21 -98 -20 -402 0 -502
31 -149 107 -249 238 -312 105 -52 172 -66 313 -66 305 0 503 126 543 344 6
33 11 63 11 68 0 4 -60 8 -134 8 l-133 0 -13 -46 c-18 -64 -66 -109 -136 -130
-81 -23 -244 -16 -299 13 -84 44 -123 110 -132 224 l-6 69 427 0 426 0 0 138
c0 216 -33 327 -125 430 -94 105 -228 161 -400 167 -55 2 -122 0 -150 -5z
m239 -242 c26 -8 60 -31 92 -63 55 -54 74 -104 74 -189 l0 -46 -291 0 -292 0
7 61 c6 64 35 140 64 172 27 30 96 67 143 77 52 11 145 5 203 -12z"/>
<path d="M9255 4311 c-83 -14 -137 -31 -198 -64 -62 -33 -157 -127 -181 -180
-52 -113 -50 -99 -53 -367 -1 -143 2 -273 7 -297 24 -103 52 -155 119 -223
116 -117 232 -155 451 -147 186 7 288 44 385 141 69 69 105 148 115 250 4 45
4 85 0 89 -4 4 -65 6 -136 5 l-129 -3 -5 -50 c-11 -93 -61 -153 -152 -180
-117 -34 -247 -10 -313 59 -54 56 -65 96 -71 271 -11 278 18 373 128 428 47
24 68 29 136 29 96 0 149 -15 197 -54 46 -38 68 -80 75 -143 l5 -50 131 -3
c104 -2 133 0 137 11 11 30 -13 167 -39 224 -56 118 -182 212 -324 242 -74 16
-223 22 -285 12z"/>
<path d="M5097 2783 c-4 -3 -7 -73 -7 -155 l0 -148 96 0 c72 0 95 3 92 13 -3
8 -31 13 -81 15 l-77 3 0 54 0 55 70 0 c56 0 70 3 70 15 0 12 -14 15 -70 15
l-70 0 0 55 0 55 80 0 c64 0 80 3 80 15 0 12 -16 15 -88 15 -49 0 -92 -3 -95
-7z"/>
<path d="M6076 2783 c-3 -3 -6 -73 -6 -155 0 -125 2 -148 15 -148 13 0 15 23
15 149 0 136 -5 172 -24 154z"/>
<path d="M6537 2784 c-16 -16 -5 -23 41 -26 l47 -3 3 -137 c4 -185 22 -183 22
2 l0 140 51 0 c36 0 49 4 47 13 -5 13 -198 23 -211 11z"/>
<path d="M6865 2770 c-10 -11 -15 -23 -12 -27 8 -7 47 25 47 39 0 14 -16 9
-35 -12z"/>
<path d="M7514 2776 c-8 -22 3 -33 18 -18 9 9 9 15 0 24 -9 9 -13 7 -18 -6z"/>
<path d="M8227 2783 c-4 -3 -7 -73 -7 -155 l0 -148 101 0 c76 0 100 3 96 13
-2 7 -26 13 -63 13 -115 3 -104 -3 -104 59 l0 55 75 0 c59 0 75 3 75 15 0 11
-17 15 -72 17 l-73 3 -3 53 -3 52 85 0 c70 0 86 3 86 15 0 12 -17 15 -93 15
-52 0 -97 -3 -100 -7z"/>
<path d="M9290 2736 c0 -60 -9 -73 -40 -56 -32 17 -78 15 -100 -5 -28 -25 -29
-153 -2 -178 21 -19 74 -22 104 -6 14 8 23 8 31 0 6 -6 15 -11 19 -11 4 0 8
70 8 155 0 97 -4 155 -10 155 -5 0 -10 -24 -10 -54z m-41 -81 c33 -16 41 -33
41 -81 0 -29 -5 -36 -40 -54 -48 -24 -58 -25 -82 -3 -25 23 -26 127 0 142 24
15 48 13 81 -4z"/>
<path d="M9887 2784 c-4 -4 -7 -74 -7 -156 0 -115 3 -149 13 -146 9 3 13 44
15 148 2 132 -3 172 -21 154z"/>
<path d="M8739 2743 c-1 -5 -2 -12 -4 -18 -1 -5 -3 -16 -3 -22 -1 -7 -11 -13
-22 -13 -11 0 -20 -4 -20 -10 0 -5 8 -10 19 -10 15 0 19 -11 25 -77 7 -86 23
-113 68 -113 38 0 36 15 -4 26 l-33 10 -3 77 -3 77 36 0 c44 0 46 18 3 22 -28
2 -34 8 -36 31 -3 24 -20 39 -23 20z"/>
<path d="M5390 2688 c-30 -11 -40 -25 -40 -61 0 -30 13 -38 88 -57 49 -13 64
-36 37 -56 -27 -20 -72 -17 -95 6 -22 22 -40 26 -40 10 0 -27 41 -50 88 -50
56 0 82 20 82 63 0 30 -17 42 -75 52 -47 9 -65 21 -65 45 0 35 91 43 112 10
15 -23 28 -26 28 -7 0 37 -71 64 -120 45z"/>
<path d="M5620 2687 c-37 -19 -51 -54 -47 -116 3 -41 9 -59 27 -73 31 -25 104
-24 130 2 24 24 26 50 5 50 -8 0 -15 -7 -15 -15 0 -34 -76 -47 -103 -17 -22
25 -23 115 -1 136 26 26 79 20 102 -11 23 -31 38 -27 27 7 -6 20 -59 50 -87
50 -7 0 -24 -6 -38 -13z"/>
<path d="M5863 2684 c-57 -29 -70 -137 -22 -185 29 -29 103 -26 134 6 35 34
36 122 3 159 -30 33 -74 41 -115 20z m91 -30 c11 -10 16 -34 16 -69 0 -61 -16
-85 -58 -85 -50 0 -72 25 -72 82 0 34 6 58 17 70 20 22 76 24 97 2z"/>
<path d="M6215 2689 c-39 -23 -58 -59 -30 -59 8 0 15 6 15 14 0 17 22 26 64
26 38 0 56 -15 56 -47 0 -21 -5 -23 -44 -23 -90 0 -136 -43 -102 -95 20 -30
70 -34 116 -10 27 14 30 14 30 0 0 -8 7 -15 16 -15 14 0 16 12 13 85 -3 69 -8
88 -25 105 -24 25 -81 35 -109 19z m101 -124 c9 -22 -13 -43 -58 -57 -33 -10
-41 -9 -54 4 -21 21 -10 55 19 61 51 10 88 7 93 -8z"/>
<path d="M6840 2692 c-14 -2 -35 -13 -47 -25 -19 -17 -23 -31 -23 -82 0 -79
23 -105 92 -105 39 0 50 5 68 27 14 18 17 29 10 31 -6 2 -18 -5 -26 -17 -30
-42 -129 -15 -122 32 3 20 10 22 81 25 l77 3 0 28 c0 56 -48 92 -110 83z m64
-38 c9 -8 16 -24 16 -35 0 -17 -7 -19 -65 -19 -70 0 -78 7 -49 48 18 26 74 30
98 6z"/>
<path d="M7065 2690 c-38 -15 -50 -40 -50 -105 0 -82 19 -105 84 -105 52 0 63
6 80 37 15 28 14 33 -4 33 -8 0 -15 -7 -15 -15 0 -34 -76 -47 -103 -17 -21 23
-23 110 -4 136 19 26 89 19 102 -11 10 -23 35 -32 35 -12 0 23 -21 47 -51 58
-37 13 -46 13 -74 1z"/>
<path d="M7330 2683 c-31 -11 -45 -12 -48 -4 -2 6 -8 11 -13 11 -5 0 -9 -47
-9 -105 0 -63 4 -105 10 -105 6 0 10 32 10 75 0 74 0 76 33 95 41 25 73 25 87
1 5 -11 10 -54 10 -95 0 -44 4 -76 10 -76 15 0 13 185 -2 197 -25 19 -44 21
-88 6z"/>
<path d="M7661 2689 c-39 -15 -50 -40 -51 -105 0 -47 4 -65 20 -82 41 -44 150
-19 150 33 0 22 -9 19 -32 -10 -21 -26 -56 -32 -88 -15 -26 14 -37 89 -18 127
20 43 100 45 113 3 8 -25 25 -26 25 -2 0 40 -71 71 -119 51z"/>
<path d="M7889 2685 c-26 -14 -44 -43 -34 -53 3 -3 14 4 25 16 28 29 95 31
110 3 21 -40 13 -48 -50 -53 -37 -3 -67 -11 -77 -20 -19 -19 -20 -62 -3 -83
16 -19 70 -19 106 0 26 13 29 13 32 0 2 -8 10 -15 19 -15 25 0 14 164 -13 191
-27 26 -82 33 -115 14z m107 -120 c9 -22 -13 -43 -57 -56 -30 -9 -42 -9 -54 1
-22 18 -18 49 8 60 37 15 97 12 103 -5z"/>
<path d="M8523 2685 c-28 -12 -33 -19 -33 -50 0 -39 8 -45 88 -65 49 -13 64
-36 37 -56 -27 -20 -68 -17 -98 6 -28 22 -37 25 -37 10 0 -25 41 -50 83 -50
55 0 87 22 87 60 0 33 -16 45 -75 55 -47 9 -65 21 -65 45 0 35 80 42 107 10
20 -23 33 -26 33 -7 0 41 -76 66 -127 42z"/>
<path d="M8911 2674 c-17 -14 -31 -30 -31 -35 0 -17 25 -9 38 11 9 14 23 20
50 20 43 0 62 -14 62 -47 0 -21 -5 -23 -45 -23 -68 0 -105 -23 -105 -63 0 -18
5 -38 12 -45 17 -17 73 -15 108 3 25 13 29 13 34 0 3 -8 10 -15 16 -15 15 0
12 161 -3 181 -34 45 -92 50 -136 13z m122 -115 c8 -30 -73 -67 -110 -50 -50
23 -4 71 68 71 29 0 38 -5 42 -21z"/>
<path d="M9684 2691 c-28 -12 -59 -54 -43 -60 6 -2 17 6 25 18 11 15 26 21 53
21 43 0 61 -14 61 -47 0 -21 -5 -23 -45 -23 -83 0 -122 -39 -96 -96 8 -19 18
-24 46 -24 20 0 49 7 65 15 25 13 29 13 34 0 3 -8 10 -15 16 -15 6 0 10 33 10
84 0 65 -4 89 -17 105 -20 24 -77 35 -109 22z m96 -115 c0 -2 3 -11 6 -20 5
-12 -6 -21 -37 -36 -53 -24 -63 -24 -83 -5 -19 19 -11 44 18 55 22 9 96 13 96
6z"/>
<path d="M7510 2585 c0 -87 3 -105 15 -105 12 0 15 18 15 105 0 87 -3 105 -15
105 -12 0 -15 -18 -15 -105z"/>
<path d="M9380 2615 c0 -100 17 -135 66 -135 19 0 46 7 59 16 23 15 25 15 31
0 15 -40 24 -8 24 89 0 63 -4 105 -10 105 -6 0 -10 -32 -10 -75 0 -71 -1 -75
-27 -88 -85 -43 -103 -28 -103 84 0 64 -3 79 -15 79 -12 0 -15 -15 -15 -75z"/>
</g>
</svg>
